<?xml version="1.0" encoding="utf-8" ?>
<svg baseProfile="tiny" height="100%" version="1.2" width="100%" xmlns="http://www.w3.org/2000/svg" xmlns:ev="http://www.w3.org/2001/xml-events" xmlns:xlink="http://www.w3.org/1999/xlink"><defs /><polyline fill="#fff" points="120.2214,102.5842 121.4628,102.5842 121.4628,107.6887 121.4628,117.1956 121.1326,117.1956 121.1326,117.5258 120.4722,117.5258 120.4722,117.856 105.7402,117.856 105.7402,117.5258 105.0798,117.5258 105.0798,116.4082 68.9102,116.4082 68.9102,116.7384 68.58,116.7384 68.58,117.0686 53.1876,117.0686 53.1876,116.7384 52.8574,116.7384 52.8574,116.4082 16.6878,116.4082 16.6878,117.5258 16.0274,117.5258 16.0274,117.856 1.2954,117.856 1.2954,117.5258 0.635,117.5258 0.635,117.1956 0.3048,117.1956 0.3048,101.1936 0.635,101.1936 0.635,100.8634 1.4478,100.8634 1.4478,95.0087 5.1532,95.0087 5.1439,91.8083 1.4478,91.8083 1.4478,16.637 0.635,16.637 0.635,16.3068 0.3048,16.3068 0.3048,0.3048 0.635,0.3048 0.635,-0.0254 1.2954,-0.0254 1.2954,-0.3556 16.0272,-0.3556 16.0272,-0.0254 16.6876,-0.0254 16.6876,0.3048 17.0178,0.3048 17.018,16.3068 16.6878,16.3068 16.6878,16.637 15.8749,16.637 15.8748,101.2063 15.7099,101.2063 15.7099,102.5017 17.907,102.5017 17.907,101.981 26.4573,101.981 43.1419,101.981 68.0974,101.981 82.0166,101.981 82.0166,102.3937 91.9734,102.3937 91.9734,101.7651 92.31,101.7651 92.31,101.981 103.8987,101.981 103.8987,102.3937 105.9751,102.3937 105.9751,101.9683 106.4825,101.9683 106.4825,101.9813 118.8625,101.9813 118.8625,102.0445 120.2214,102.0445 120.2214,102.5842" stroke="blue" stroke-width="0.3" /><ellipse cx="71.5448" cy="106.9585" fill="#f40" opacity="0.5" rx="3" ry="3" /><ellipse cx="71.5448" cy="106.9585" fill="#f40" opacity="0.5" rx="3" ry="3" /><ellipse cx="71.5448" cy="106.9585" fill="#f40" opacity="0.5" rx="3" ry="3" /><ellipse cx="71.5448" cy="106.9585" fill="#f40" opacity="0.5" rx="3" ry="3" /><ellipse cx="71.5448" cy="106.9585" fill="#f40" opacity="0.5" rx="3" ry="3" /><ellipse cx="71.5448" cy="106.9585" fill="#f40" opacity="0.5" rx="3" ry="3" /><ellipse cx="71.5448" cy="106.9585" fill="#f40" opacity="0.5" rx="3" ry="3" /><ellipse cx="71.5042" cy="106.9636" fill="#f40" opacity="0.5" rx="3" ry="3" /><ellipse cx="71.5042" cy="106.9636" fill="#f40" opacity="0.5" rx="3" ry="3" /><ellipse cx="71.5042" cy="106.9636" fill="#f40" opacity="0.5" rx="3" ry="3" /><ellipse cx="71.5042" cy="106.9636" fill="#f40" opacity="0.5" rx="3" ry="3" /><ellipse cx="71.5179" cy="106.9619" fill="#f40" opacity="0.5" rx="3" ry="3" /><ellipse cx="71.5179" cy="106.9619" fill="#f40" opacity="0.5" rx="3" ry="3" /><ellipse cx="71.5179" cy="106.9619" fill="#f40" opacity="0.5" rx="3" ry="3" /><ellipse cx="71.5179" cy="106.9619" fill="#f40" opacity="0.5" rx="3" ry="3" /><ellipse cx="15.5352" cy="14.9597" fill="#f40" opacity="0.5" rx="3" ry="3" /><ellipse cx="15.5352" cy="14.9597" fill="#f40" opacity="0.5" rx="3" ry="3" /><ellipse cx="15.5352" cy="14.9597" fill="#f40" opacity="0.5" rx="3" ry="3" /><ellipse cx="15.5352" cy="14.9597" fill="#f40" opacity="0.5" rx="3" ry="3" /><ellipse cx="15.5352" cy="14.9597" fill="#f40" opacity="0.5" rx="3" ry="3" /><ellipse cx="15.5352" cy="14.9597" fill="#f40" opacity="0.5" rx="3" ry="3" /><ellipse cx="15.5606" cy="14.9565" fill="#f40" opacity="0.5" rx="3" ry="3" /><ellipse cx="15.5606" cy="14.9565" fill="#f40" opacity="0.5" rx="3" ry="3" /><ellipse cx="15.5606" cy="14.9565" fill="#f40" opacity="0.5" rx="3" ry="3" /><ellipse cx="15.5606" cy="14.9565" fill="#f40" opacity="0.5" rx="3" ry="3" /><ellipse cx="15.5606" cy="14.9565" fill="#f40" opacity="0.5" rx="3" ry="3" /><ellipse cx="15.5606" cy="14.9565" fill="#f40" opacity="0.5" rx="3" ry="3" /><ellipse cx="15.5521" cy="14.9576" fill="#f40" opacity="0.5" rx="3" ry="3" /><ellipse cx="15.5521" cy="14.9576" fill="#f40" opacity="0.5" rx="3" ry="3" /><ellipse cx="15.5521" cy="14.9576" fill="#f40" opacity="0.5" rx="3" ry="3" /><ellipse cx="15.5521" cy="14.9576" fill="#f40" opacity="0.5" rx="3" ry="3" /><ellipse cx="15.5521" cy="14.9576" fill="#f40" opacity="0.5" rx="3" ry="3" /><ellipse cx="15.5521" cy="14.9576" fill="#f40" opacity="0.5" rx="3" ry="3" /><ellipse cx="15.5513" cy="14.9577" fill="#f40" opacity="0.5" rx="3" ry="3" /><ellipse cx="15.5513" cy="14.9577" fill="#f40" opacity="0.5" rx="3" ry="3" /><ellipse cx="15.5513" cy="14.9577" fill="#f40" opacity="0.5" rx="3" ry="3" /><ellipse cx="15.5513" cy="14.9577" fill="#f40" opacity="0.5" rx="3" ry="3" /><ellipse cx="15.5513" cy="14.9577" fill="#f40" opacity="0.5" rx="3" ry="3" /><ellipse cx="15.5513" cy="14.9577" fill="#f40" opacity="0.5" rx="3" ry="3" /><ellipse cx="15.543" cy="14.9587" fill="#f40" opacity="0.5" rx="3" ry="3" /><ellipse cx="15.543" cy="14.9587" fill="#f40" opacity="0.5" rx="3" ry="3" /><ellipse cx="15.543" cy="14.9587" fill="#f40" opacity="0.5" rx="3" ry="3" /><ellipse cx="15.543" cy="14.9587" fill="#f40" opacity="0.5" rx="3" ry="3" /><ellipse cx="15.543" cy="14.9587" fill="#f40" opacity="0.5" rx="3" ry="3" /><ellipse cx="15.543" cy="14.9587" fill="#f40" opacity="0.5" rx="3" ry="3" /><ellipse cx="15.5131" cy="30.9625" fill="#f40" opacity="0.5" rx="3" ry="3" /><ellipse cx="15.5131" cy="30.9625" fill="#f40" opacity="0.5" rx="3" ry="3" /><ellipse cx="15.5131" cy="30.9625" fill="#f40" opacity="0.5" rx="3" ry="3" /><ellipse cx="15.5131" cy="30.9625" fill="#f40" opacity="0.5" rx="3" ry="3" /><ellipse cx="15.5131" cy="30.9625" fill="#f40" opacity="0.5" rx="3" ry="3" /><ellipse cx="15.5131" cy="30.9625" fill="#f40" opacity="0.5" rx="3" ry="3" /><ellipse cx="15.5591" cy="30.9567" fill="#f40" opacity="0.5" rx="3" ry="3" /><ellipse cx="15.5591" cy="30.9567" fill="#f40" opacity="0.5" rx="3" ry="3" /><ellipse cx="15.5591" cy="30.9567" fill="#f40" opacity="0.5" rx="3" ry="3" /><ellipse cx="15.5591" cy="30.9567" fill="#f40" opacity="0.5" rx="3" ry="3" /><ellipse cx="15.5591" cy="30.9567" fill="#f40" opacity="0.5" rx="3" ry="3" /><ellipse cx="15.5591" cy="30.9567" fill="#f40" opacity="0.5" rx="3" ry="3" /><ellipse cx="15.5156" cy="30.9622" fill="#f40" opacity="0.5" rx="3" ry="3" /><ellipse cx="15.5156" cy="30.9622" fill="#f40" opacity="0.5" rx="3" ry="3" /><ellipse cx="15.5156" cy="30.9622" fill="#f40" opacity="0.5" rx="3" ry="3" /><ellipse cx="15.5156" cy="30.9622" fill="#f40" opacity="0.5" rx="3" ry="3" /><ellipse cx="15.5156" cy="30.9622" fill="#f40" opacity="0.5" rx="3" ry="3" /><ellipse cx="15.5156" cy="30.9622" fill="#f40" opacity="0.5" rx="3" ry="3" /><ellipse cx="15.5674" cy="30.9556" fill="#f40" opacity="0.5" rx="3" ry="3" /><ellipse cx="15.5674" cy="30.9556" fill="#f40" opacity="0.5" rx="3" ry="3" /><ellipse cx="15.5674" cy="30.9556" fill="#f40" opacity="0.5" rx="3" ry="3" /><ellipse cx="15.5674" cy="30.9556" fill="#f40" opacity="0.5" rx="3" ry="3" /><ellipse cx="15.5674" cy="30.9556" fill="#f40" opacity="0.5" rx="3" ry="3" /><ellipse cx="15.5674" cy="30.9556" fill="#f40" opacity="0.5" rx="3" ry="3" /><ellipse cx="15.5394" cy="30.9592" fill="#f40" opacity="0.5" rx="3" ry="3" /><ellipse cx="15.5394" cy="30.9592" fill="#f40" opacity="0.5" rx="3" ry="3" /><ellipse cx="15.5394" cy="30.9592" fill="#f40" opacity="0.5" rx="3" ry="3" /><ellipse cx="15.5394" cy="30.9592" fill="#f40" opacity="0.5" rx="3" ry="3" /><ellipse cx="15.5394" cy="30.9592" fill="#f40" opacity="0.5" rx="3" ry="3" /><ellipse cx="15.5394" cy="30.9592" fill="#f40" opacity="0.5" rx="3" ry="3" /><ellipse cx="15.5347" cy="46.9598" fill="#f40" opacity="0.5" rx="3" ry="3" /><ellipse cx="15.5347" cy="46.9598" fill="#f40" opacity="0.5" rx="3" ry="3" /><ellipse cx="15.5347" cy="46.9598" fill="#f40" opacity="0.5" rx="3" ry="3" /><ellipse cx="15.5347" cy="46.9598" fill="#f40" opacity="0.5" rx="3" ry="3" /><ellipse cx="15.5347" cy="46.9598" fill="#f40" opacity="0.5" rx="3" ry="3" /><ellipse cx="15.5347" cy="46.9598" fill="#f40" opacity="0.5" rx="3" ry="3" /><ellipse cx="15.5414" cy="46.9589" fill="#f40" opacity="0.5" rx="3" ry="3" /><ellipse cx="15.5414" cy="46.9589" fill="#f40" opacity="0.5" rx="3" ry="3" /><ellipse cx="15.5414" cy="46.9589" fill="#f40" opacity="0.5" rx="3" ry="3" /><ellipse cx="15.5414" cy="46.9589" fill="#f40" opacity="0.5" rx="3" ry="3" /><ellipse cx="15.5414" cy="46.9589" fill="#f40" opacity="0.5" rx="3" ry="3" /><ellipse cx="15.5414" cy="46.9589" fill="#f40" opacity="0.5" rx="3" ry="3" /><ellipse cx="15.5198" cy="46.9616" fill="#f40" opacity="0.5" rx="3" ry="3" /><ellipse cx="15.5198" cy="46.9616" fill="#f40" opacity="0.5" rx="3" ry="3" /><ellipse cx="15.5198" cy="46.9616" fill="#f40" opacity="0.5" rx="3" ry="3" /><ellipse cx="15.5198" cy="46.9616" fill="#f40" opacity="0.5" rx="3" ry="3" /><ellipse cx="15.5198" cy="46.9616" fill="#f40" opacity="0.5" rx="3" ry="3" /><ellipse cx="15.5198" cy="46.9616" fill="#f40" opacity="0.5" rx="3" ry="3" /><ellipse cx="15.5281" cy="46.9606" fill="#f40" opacity="0.5" rx="3" ry="3" /><ellipse cx="15.5281" cy="46.9606" fill="#f40" opacity="0.5" rx="3" ry="3" /><ellipse cx="15.5281" cy="46.9606" fill="#f40" opacity="0.5" rx="3" ry="3" /><ellipse cx="15.5281" cy="46.9606" fill="#f40" opacity="0.5" rx="3" ry="3" /><ellipse cx="15.5281" cy="46.9606" fill="#f40" opacity="0.5" rx="3" ry="3" /><ellipse cx="15.5281" cy="46.9606" fill="#f40" opacity="0.5" rx="3" ry="3" /><ellipse cx="15.5237" cy="46.9611" fill="#f40" opacity="0.5" rx="3" ry="3" /><ellipse cx="15.5237" cy="46.9611" fill="#f40" opacity="0.5" rx="3" ry="3" /><ellipse cx="15.5237" cy="46.9611" fill="#f40" opacity="0.5" rx="3" ry="3" /><ellipse cx="15.5237" cy="46.9611" fill="#f40" opacity="0.5" rx="3" ry="3" /><ellipse cx="15.5237" cy="46.9611" fill="#f40" opacity="0.5" rx="3" ry="3" /><ellipse cx="15.5237" cy="46.9611" fill="#f40" opacity="0.5" rx="3" ry="3" /><ellipse cx="15.5246" cy="62.961" fill="#f40" opacity="0.5" rx="3" ry="3" /><ellipse cx="15.5246" cy="62.961" fill="#f40" opacity="0.5" rx="3" ry="3" /><ellipse cx="15.5246" cy="62.961" fill="#f40" opacity="0.5" rx="3" ry="3" /><ellipse cx="15.5246" cy="62.961" fill="#f40" opacity="0.5" rx="3" ry="3" /><ellipse cx="15.5246" cy="62.961" fill="#f40" opacity="0.5" rx="3" ry="3" /><ellipse cx="15.5246" cy="62.961" fill="#f40" opacity="0.5" rx="3" ry="3" /><ellipse cx="15.5667" cy="62.9557" fill="#f40" opacity="0.5" rx="3" ry="3" /><ellipse cx="15.5667" cy="62.9557" fill="#f40" opacity="0.5" rx="3" ry="3" /><ellipse cx="15.5667" cy="62.9557" fill="#f40" opacity="0.5" rx="3" ry="3" /><ellipse cx="15.5667" cy="62.9557" fill="#f40" opacity="0.5" rx="3" ry="3" /><ellipse cx="15.5667" cy="62.9557" fill="#f40" opacity="0.5" rx="3" ry="3" /><ellipse cx="15.5667" cy="62.9557" fill="#f40" opacity="0.5" rx="3" ry="3" /><ellipse cx="15.5274" cy="62.9607" fill="#f40" opacity="0.5" rx="3" ry="3" /><ellipse cx="15.5274" cy="62.9607" fill="#f40" opacity="0.5" rx="3" ry="3" /><ellipse cx="15.5274" cy="62.9607" fill="#f40" opacity="0.5" rx="3" ry="3" /><ellipse cx="15.5274" cy="62.9607" fill="#f40" opacity="0.5" rx="3" ry="3" /><ellipse cx="15.5274" cy="62.9607" fill="#f40" opacity="0.5" rx="3" ry="3" /><ellipse cx="15.5274" cy="62.9607" fill="#f40" opacity="0.5" rx="3" ry="3" /><ellipse cx="15.5183" cy="62.9618" fill="#f40" opacity="0.5" rx="3" ry="3" /><ellipse cx="15.5183" cy="62.9618" fill="#f40" opacity="0.5" rx="3" ry="3" /><ellipse cx="15.5183" cy="62.9618" fill="#f40" opacity="0.5" rx="3" ry="3" /><ellipse cx="15.5183" cy="62.9618" fill="#f40" opacity="0.5" rx="3" ry="3" /><ellipse cx="15.5183" cy="62.9618" fill="#f40" opacity="0.5" rx="3" ry="3" /><ellipse cx="15.5183" cy="62.9618" fill="#f40" opacity="0.5" rx="3" ry="3" /><ellipse cx="15.5344" cy="62.9598" fill="#f40" opacity="0.5" rx="3" ry="3" /><ellipse cx="15.5344" cy="62.9598" fill="#f40" opacity="0.5" rx="3" ry="3" /><ellipse cx="15.5344" cy="62.9598" fill="#f40" opacity="0.5" rx="3" ry="3" /><ellipse cx="15.5344" cy="62.9598" fill="#f40" opacity="0.5" rx="3" ry="3" /><ellipse cx="15.5344" cy="62.9598" fill="#f40" opacity="0.5" rx="3" ry="3" /><ellipse cx="15.5344" cy="62.9598" fill="#f40" opacity="0.5" rx="3" ry="3" /><ellipse cx="15.5052" cy="78.9635" fill="#f40" opacity="0.5" rx="3" ry="3" /><ellipse cx="15.5052" cy="78.9635" fill="#f40" opacity="0.5" rx="3" ry="3" /><ellipse cx="15.5052" cy="78.9635" fill="#f40" opacity="0.5" rx="3" ry="3" /><ellipse cx="15.5052" cy="78.9635" fill="#f40" opacity="0.5" rx="3" ry="3" /><ellipse cx="15.5052" cy="78.9635" fill="#f40" opacity="0.5" rx="3" ry="3" /><ellipse cx="15.5052" cy="78.9635" fill="#f40" opacity="0.5" rx="3" ry="3" /><ellipse cx="15.5439" cy="78.9586" fill="#f40" opacity="0.5" rx="3" ry="3" /><ellipse cx="15.5439" cy="78.9586" fill="#f40" opacity="0.5" rx="3" ry="3" /><ellipse cx="15.5439" cy="78.9586" fill="#f40" opacity="0.5" rx="3" ry="3" /><ellipse cx="15.5439" cy="78.9586" fill="#f40" opacity="0.5" rx="3" ry="3" /><ellipse cx="15.5439" cy="78.9586" fill="#f40" opacity="0.5" rx="3" ry="3" /><ellipse cx="15.5439" cy="78.9586" fill="#f40" opacity="0.5" rx="3" ry="3" /><ellipse cx="15.5393" cy="78.9592" fill="#f40" opacity="0.5" rx="3" ry="3" /><ellipse cx="15.5393" cy="78.9592" fill="#f40" opacity="0.5" rx="3" ry="3" /><ellipse cx="15.5393" cy="78.9592" fill="#f40" opacity="0.5" rx="3" ry="3" /><ellipse cx="15.5393" cy="78.9592" fill="#f40" opacity="0.5" rx="3" ry="3" /><ellipse cx="15.5393" cy="78.9592" fill="#f40" opacity="0.5" rx="3" ry="3" /><ellipse cx="15.5393" cy="78.9592" fill="#f40" opacity="0.5" rx="3" ry="3" /><ellipse cx="15.566" cy="78.9558" fill="#f40" opacity="0.5" rx="3" ry="3" /><ellipse cx="15.566" cy="78.9558" fill="#f40" opacity="0.5" rx="3" ry="3" /><ellipse cx="71.5042" cy="106.9636" fill="#f40" opacity="0.5" rx="3" ry="3" /><ellipse cx="71.5042" cy="106.9636" fill="#f40" opacity="0.5" rx="3" ry="3" /><ellipse cx="71.5042" cy="106.9636" fill="#f40" opacity="0.5" rx="3" ry="3" /><ellipse cx="71.5179" cy="106.9619" fill="#f40" opacity="0.5" rx="3" ry="3" /><ellipse cx="71.5179" cy="106.9619" fill="#f40" opacity="0.5" rx="3" ry="3" /><rect fill="none" height="6" opacity="0.5" stroke="#000" stroke-width="0.1" width="6" x="63.7865" y="76.8073" /><rect fill="none" height="6" opacity="0.5" stroke="#000" stroke-width="0.1" width="6" x="31.387" y="63.5203" /><rect fill="none" height="6" opacity="0.5" stroke="#000" stroke-width="0.1" width="6" x="27.4746" y="46.3301" /><rect fill="none" height="4" opacity="0.5" stroke="#000" stroke-width="0.1" width="4" x="29.2275" y="29.7523" /><rect fill="none" height="4" opacity="0.5" stroke="#000" stroke-width="0.1" width="4" x="32.4396" y="66.0111" /><rect fill="none" height="4" opacity="0.5" stroke="#000" stroke-width="0.1" width="4" x="28.1527" y="45.8435" /><rect fill="none" height="3" opacity="0.5" stroke="#000" stroke-width="0.1" width="3" x="27.171" y="27.1618" /><rect fill="none" height="3" opacity="0.5" stroke="#000" stroke-width="0.1" width="3" x="63.6085" y="77.9132" /><rect fill="none" height="3" opacity="0.5" stroke="#000" stroke-width="0.1" width="3" x="27.7265" y="62.6587" /><rect fill="none" height="2" opacity="0.5" stroke="#000" stroke-width="0.1" width="2" x="28.1272" y="46.0899" /><rect fill="none" height="2" opacity="0.5" stroke="#000" stroke-width="0.1" width="2" x="27.512" y="27.605" /><rect fill="none" height="2" opacity="0.5" stroke="#000" stroke-width="0.1" width="2" x="67.8055" y="73.569" /><rect fill="none" height="1" opacity="0.5" stroke="#000" stroke-width="0.1" width="1" x="103.8809" y="78.2077" /><rect fill="none" height="1" opacity="0.5" stroke="#000" stroke-width="0.1" width="1" x="82.8091" y="73.5653" /><rect fill="none" height="1" opacity="0.5" stroke="#000" stroke-width="0.1" width="1" x="45.5443" y="77.8058" /></svg>