<?xml version="1.0" encoding="UTF-8" standalone="no"?>
<!-- Created with Inkscape (http://www.inkscape.org/) -->

<svg
   xmlns:dc="http://purl.org/dc/elements/1.1/"
   xmlns:cc="http://creativecommons.org/ns#"
   xmlns:rdf="http://www.w3.org/1999/02/22-rdf-syntax-ns#"
   xmlns:svg="http://www.w3.org/2000/svg"
   xmlns="http://www.w3.org/2000/svg"
   xmlns:sodipodi="http://sodipodi.sourceforge.net/DTD/sodipodi-0.dtd"
   xmlns:inkscape="http://www.inkscape.org/namespaces/inkscape"
   width="1289.49"
   height="729.15167"
   viewBox="0 0 341.17757 192.92139"
   version="1.1"
   id="svg8"
   inkscape:version="0.92.5 (2060ec1f9f, 2020-04-08)"
   sodipodi:docname="img.svg">
  <defs
     id="defs2" />
  <sodipodi:namedview
     id="base"
     pagecolor="#ffffff"
     bordercolor="#666666"
     borderopacity="1.0"
     inkscape:pageopacity="0.0"
     inkscape:pageshadow="2"
     inkscape:zoom="0.5"
     inkscape:cx="801.44143"
     inkscape:cy="150.51912"
     inkscape:document-units="mm"
     inkscape:current-layer="layer1"
     showgrid="false"
     inkscape:window-width="1680"
     inkscape:window-height="1003"
     inkscape:window-x="0"
     inkscape:window-y="0"
     inkscape:window-maximized="1"
     inkscape:snap-global="false"
     showguides="true"
     inkscape:guide-bbox="true"
     fit-margin-top="0"
     fit-margin-left="0"
     fit-margin-right="0"
     fit-margin-bottom="0"
     units="px" />
  <metadata
     id="metadata5">
    <rdf:RDF>
      <cc:Work
         rdf:about="">
        <dc:format>image/svg+xml</dc:format>
        <dc:type
           rdf:resource="http://purl.org/dc/dcmitype/StillImage" />
        <dc:title></dc:title>
      </cc:Work>
    </rdf:RDF>
  </metadata>
  <g
     inkscape:label="Layer 1"
     inkscape:groupmode="layer"
     id="layer1"
     transform="translate(3347.9015,1518.9344)">
    <g
       id="g5082"
       transform="matrix(0.68220191,0,0,0.68220191,-1036.4086,-419.90693)">
      <rect
         y="-1606.3463"
         x="-3380.052"
         height="272.383"
         width="220.91896"
         id="rect4870"
         style="opacity:1;fill:#d3d7cf;fill-opacity:1;stroke:none;stroke-width:1.41748917" />
      <path
         inkscape:connector-curvature="0"
         style="opacity:1;fill:none;fill-opacity:1;stroke:#000000;stroke-width:2.72229052"
         d="m -3262.3165,-1445.3511 v 15.3128 h -40.1051 -43.022 v 57.3625 h 43.022 v -32.5702 h 40.1051 v 17.2574 h 43.022 v -57.3625 z"
         id="path3731" />
      <g
         transform="matrix(0.2024168,0,0,0.2024168,-2847.7229,-1345.5284)"
         id="g4744">
        <path
           style="fill:none;fill-rule:evenodd;stroke:#ef2929;stroke-width:3.57873297;stroke-linecap:butt;stroke-linejoin:miter;stroke-opacity:1"
           d="m -2553.4329,-432.47811 h 764.1868"
           id="path3783"
           inkscape:connector-curvature="0" />
        <path
           inkscape:connector-curvature="0"
           id="path3785"
           d="m -2553.4329,-365.8389 h 764.1868"
           style="fill:none;fill-rule:evenodd;stroke:#ef2929;stroke-width:3.57873297;stroke-linecap:butt;stroke-linejoin:miter;stroke-opacity:1" />
        <path
           style="fill:none;fill-rule:evenodd;stroke:#ef2929;stroke-width:3.57873297;stroke-linecap:butt;stroke-linejoin:miter;stroke-opacity:1"
           d="m -2553.4329,-299.19976 h 764.1868"
           id="path3787"
           inkscape:connector-curvature="0" />
        <path
           inkscape:connector-curvature="0"
           id="path3789"
           d="m -2553.4329,-232.56051 h 764.1868"
           style="fill:none;fill-rule:evenodd;stroke:#ef2929;stroke-width:3.57873297;stroke-linecap:butt;stroke-linejoin:miter;stroke-opacity:1" />
        <path
           inkscape:connector-curvature="0"
           id="path3791"
           d="M -2189.5574,-126.72168 V -525.48787"
           style="fill:none;fill-rule:evenodd;stroke:#ef2929;stroke-width:4;stroke-linecap:butt;stroke-linejoin:miter;stroke-opacity:1" />
        <path
           style="fill:none;fill-rule:evenodd;stroke:#ef2929;stroke-width:4;stroke-linecap:butt;stroke-linejoin:miter;stroke-opacity:1"
           d="M -2256.3263,-126.72168 V -525.48787"
           id="path3793"
           inkscape:connector-curvature="0" />
        <path
           inkscape:connector-curvature="0"
           id="path3795"
           d="M -2323.0949,-126.72168 V -525.48787"
           style="fill:none;fill-rule:evenodd;stroke:#ef2929;stroke-width:4;stroke-linecap:butt;stroke-linejoin:miter;stroke-opacity:1" />
        <path
           style="fill:none;fill-rule:evenodd;stroke:#ef2929;stroke-width:4;stroke-linecap:butt;stroke-linejoin:miter;stroke-opacity:1"
           d="M -2389.8639,-126.72168 V -525.48787"
           id="path3797"
           inkscape:connector-curvature="0" />
        <path
           style="fill:none;fill-rule:evenodd;stroke:#ef2929;stroke-width:4;stroke-linecap:butt;stroke-linejoin:miter;stroke-opacity:1"
           d="M -1922.4824,-126.72168 V -525.48787"
           id="path3805"
           inkscape:connector-curvature="0" />
        <path
           inkscape:connector-curvature="0"
           id="path3807"
           d="M -1989.2511,-126.72168 V -525.48787"
           style="fill:none;fill-rule:evenodd;stroke:#ef2929;stroke-width:4;stroke-linecap:butt;stroke-linejoin:miter;stroke-opacity:1" />
        <path
           style="fill:none;fill-rule:evenodd;stroke:#ef2929;stroke-width:4;stroke-linecap:butt;stroke-linejoin:miter;stroke-opacity:1"
           d="M -2056.0199,-126.72168 V -525.48787"
           id="path3809"
           inkscape:connector-curvature="0" />
        <path
           inkscape:connector-curvature="0"
           id="path3811"
           d="M -2122.7886,-126.72168 V -525.48787"
           style="fill:none;fill-rule:evenodd;stroke:#ef2929;stroke-width:4;stroke-linecap:butt;stroke-linejoin:miter;stroke-opacity:1" />
        <path
           style="fill:none;fill-rule:evenodd;stroke:#ef2929;stroke-width:4;stroke-linecap:butt;stroke-linejoin:miter;stroke-opacity:1"
           d="M -1855.7135,-126.72168 V -525.48787"
           id="path3821"
           inkscape:connector-curvature="0" />
        <path
           style="fill:none;fill-rule:evenodd;stroke:#ef2929;stroke-width:3.57873297;stroke-linecap:butt;stroke-linejoin:miter;stroke-opacity:1"
           d="m -2553.4329,-170.55398 h 764.1868"
           id="path3863"
           inkscape:connector-curvature="0" />
      </g>
      <path
         id="path4746"
         d="m -3266.0372,-1563.1444 v 15.3129 h -40.1051 -43.022 v 57.3625 h 43.022 v -32.5703 h 40.1051 v 17.2574 h 43.022 v -57.3625 z"
         style="opacity:1;fill:none;fill-opacity:1;stroke:#000000;stroke-width:2.72229052"
         inkscape:connector-curvature="0" />
      <text
         id="text4788"
         y="-1459.3188"
         x="-3348.064"
         style="font-style:normal;font-weight:normal;font-size:6.17175961px;line-height:125%;font-family:Sans;letter-spacing:0px;word-spacing:0px;fill:#000000;fill-opacity:1;stroke:none;stroke-width:0.15429398px;stroke-linecap:butt;stroke-linejoin:miter;stroke-opacity:1"
         xml:space="preserve"><tspan
           style="stroke-width:0.15429398px"
           y="-1459.3188"
           x="-3348.064"
           id="tspan4786"
           sodipodi:role="line">Rozpalaj pożary na siatce (punkty przecięcia)</tspan></text>
      <text
         xml:space="preserve"
         style="font-style:normal;font-weight:normal;font-size:8.17225075px;line-height:125%;font-family:Sans;letter-spacing:0px;word-spacing:0px;fill:#000000;fill-opacity:1;stroke:none;stroke-width:0.20430627px;stroke-linecap:butt;stroke-linejoin:miter;stroke-opacity:1"
         x="-3356.7261"
         y="-1592.8529"
         id="text4864"><tspan
           sodipodi:role="line"
           id="tspan4862"
           x="-3356.7261"
           y="-1592.8529"
           style="stroke-width:0.20430627px">Rozpalaj pożary na siatce (punkty przecięcia)</tspan></text>
      <text
         id="text4876"
         y="-1558.6096"
         x="-3354.7974"
         style="font-style:normal;font-weight:normal;font-size:6.17175961px;line-height:125%;font-family:Sans;letter-spacing:0px;word-spacing:0px;fill:#000000;fill-opacity:1;stroke:none;stroke-width:0.15429398px;stroke-linecap:butt;stroke-linejoin:miter;stroke-opacity:1"
         xml:space="preserve"><tspan
           style="stroke-width:0.15429398px"
           y="-1558.6096"
           x="-3354.7974"
           id="tspan4874"
           sodipodi:role="line">Rzut piętra z góry</tspan></text>
    </g>
    <g
       id="g5056"
       transform="matrix(0.62804318,0,0,0.62804318,-1026.6102,-693.05763)">
      <g
         id="g5028">
        <rect
           y="-1305.7979"
           x="-3382.6899"
           height="292.92093"
           width="220.91896"
           id="rect4872"
           style="opacity:1;fill:#d3d7cf;fill-opacity:1;stroke:none;stroke-width:1.46995819" />
        <path
           id="path4778"
           d="m -3258.2641,-1253.75 v 15.3129 h -40.1051 -43.022 v 57.3625 h 43.022 v -32.5703 h 40.1051 v 17.2574 h 43.0219 v -57.3625 z"
           style="opacity:1;fill:none;fill-opacity:1;stroke:#000000;stroke-width:2.72229052"
           inkscape:connector-curvature="0" />
        <path
           inkscape:connector-curvature="0"
           id="path4856"
           d="m -3339.8026,-1273.2404 a 4.8289989,4.2924435 0 0 0 -4.829,4.2924 4.8289989,4.2924435 0 0 0 0.6297,2.1088 4.8289989,4.2924435 0 0 0 -2.4733,1.4626 4.8289989,4.2924435 0 0 0 -2.6906,-0.73 4.8289989,4.2924435 0 0 0 -4.829,4.2924 4.8289989,4.2924435 0 0 0 1.819,3.3513 4.8289989,4.2924435 0 0 0 -0.7014,2.1707 4.8289989,4.2924435 0 0 0 -2.2322,3.6182 4.8289989,4.2924435 0 0 0 4.4689,4.2765 4.8289989,4.2924435 0 0 0 -0.01,0.1821 4.8289989,4.2924435 0 0 0 4.829,4.2925 4.8289989,4.2924435 0 0 0 0.7133,-0.051 4.8289989,4.2924435 0 0 0 3.2994,1.1656 4.8289989,4.2924435 0 0 0 4.8006,-3.8391 4.8289989,4.2924435 0 0 0 4.1167,2.0556 4.8289989,4.2924435 0 0 0 4.8289,-4.2925 4.8289989,4.2924435 0 0 0 -1.8875,-3.3976 10.031923,8.9172651 0 0 0 0.051,-0.1228 4.8289989,4.2924435 0 0 0 3.9191,1.7937 4.8289989,4.2924435 0 0 0 4.8289,-4.2925 4.8289989,4.2924435 0 0 0 -4.8289,-4.2924 4.8289989,4.2924435 0 0 0 -0.8058,0.061 4.8289989,4.2924435 0 0 0 -0.8433,-1.8275 4.8289989,4.2924435 0 0 0 0.6818,-2.1893 4.8289989,4.2924435 0 0 0 -4.4723,-4.2766 4.8289989,4.2924435 0 0 0 -3.5636,-1.7833 4.8289989,4.2924435 0 0 0 -4.8186,-4.0287 z"
           style="opacity:1;fill:#73d216;fill-opacity:1;stroke:#4e9a06;stroke-width:1.07849765" />
        <path
           style="opacity:1;fill:#73d216;fill-opacity:1;stroke:#4e9a06;stroke-width:1.07849765"
           d="m -3317.2865,-1279.0367 a 4.8289989,4.2924435 0 0 0 -4.829,4.2924 4.8289989,4.2924435 0 0 0 0.6297,2.1089 4.8289989,4.2924435 0 0 0 -2.4733,1.4626 4.8289989,4.2924435 0 0 0 -2.6906,-0.7301 4.8289989,4.2924435 0 0 0 -4.829,4.2925 4.8289989,4.2924435 0 0 0 1.819,3.3513 4.8289989,4.2924435 0 0 0 -0.7015,2.1706 4.8289989,4.2924435 0 0 0 -2.2321,3.6183 4.8289989,4.2924435 0 0 0 4.4689,4.2764 4.8289989,4.2924435 0 0 0 -0.01,0.1822 4.8289989,4.2924435 0 0 0 4.829,4.2925 4.8289989,4.2924435 0 0 0 0.7133,-0.051 4.8289989,4.2924435 0 0 0 3.2994,1.1656 4.8289989,4.2924435 0 0 0 4.8006,-3.8391 4.8289989,4.2924435 0 0 0 4.1167,2.0557 4.8289989,4.2924435 0 0 0 4.8289,-4.2925 4.8289989,4.2924435 0 0 0 -1.8875,-3.3977 10.031923,8.9172651 0 0 0 0.051,-0.1228 4.8289989,4.2924435 0 0 0 3.9191,1.7938 4.8289989,4.2924435 0 0 0 4.8289,-4.2925 4.8289989,4.2924435 0 0 0 -4.8289,-4.2924 4.8289989,4.2924435 0 0 0 -0.8058,0.061 4.8289989,4.2924435 0 0 0 -0.8433,-1.8276 4.8289989,4.2924435 0 0 0 0.6818,-2.1893 4.8289989,4.2924435 0 0 0 -4.4724,-4.2766 4.8289989,4.2924435 0 0 0 -3.5635,-1.7833 4.8289989,4.2924435 0 0 0 -4.8186,-4.0288 z"
           id="path4858"
           inkscape:connector-curvature="0" />
        <path
           inkscape:connector-curvature="0"
           id="path4860"
           d="m -3301.9042,-1276.1386 a 4.8289989,4.2924435 0 0 0 -4.829,4.2925 4.8289989,4.2924435 0 0 0 0.6297,2.1089 4.8289989,4.2924435 0 0 0 -2.4733,1.4625 4.8289989,4.2924435 0 0 0 -2.6906,-0.73 4.8289989,4.2924435 0 0 0 -4.829,4.2924 4.8289989,4.2924435 0 0 0 1.819,3.3513 4.8289989,4.2924435 0 0 0 -0.7015,2.1707 4.8289989,4.2924435 0 0 0 -2.2321,3.6182 4.8289989,4.2924435 0 0 0 4.4689,4.2765 4.8289989,4.2924435 0 0 0 -0.01,0.1821 4.8289989,4.2924435 0 0 0 4.8289,4.2925 4.8289989,4.2924435 0 0 0 0.7134,-0.051 4.8289989,4.2924435 0 0 0 3.2994,1.1656 4.8289989,4.2924435 0 0 0 4.8006,-3.8392 4.8289989,4.2924435 0 0 0 4.1166,2.0556 4.8289989,4.2924435 0 0 0 4.829,-4.2924 4.8289989,4.2924435 0 0 0 -1.8876,-3.3976 10.031923,8.9172651 0 0 0 0.051,-0.1228 4.8289989,4.2924435 0 0 0 3.9191,1.7938 4.8289989,4.2924435 0 0 0 4.8289,-4.2926 4.8289989,4.2924435 0 0 0 -4.8289,-4.2924 4.8289989,4.2924435 0 0 0 -0.8057,0.061 4.8289989,4.2924435 0 0 0 -0.8433,-1.8276 4.8289989,4.2924435 0 0 0 0.6817,-2.1894 4.8289989,4.2924435 0 0 0 -4.4723,-4.2765 4.8289989,4.2924435 0 0 0 -3.5637,-1.7833 4.8289989,4.2924435 0 0 0 -4.8185,-4.0288 z"
           style="opacity:1;fill:#73d216;fill-opacity:1;stroke:#4e9a06;stroke-width:1.07849765" />
        <text
           xml:space="preserve"
           style="font-style:normal;font-weight:normal;font-size:6.74568748px;line-height:125%;font-family:Sans;letter-spacing:0px;word-spacing:0px;fill:#000000;fill-opacity:1;stroke:none;stroke-width:0.16864218px;stroke-linecap:butt;stroke-linejoin:miter;stroke-opacity:1"
           x="-3373.2776"
           y="-1289.1973"
           id="text4868"><tspan
             sodipodi:role="line"
             id="tspan4866"
             x="-3373.2776"
             y="-1289.1973"
             style="stroke-width:0.16864218px">Rozmieszczaj samochody wzdłuż wskazanej (niebieskiej) linii</tspan></text>
        <g
           id="g5001"
           transform="translate(0,-101.72946)">
          <path
             id="path4780"
             d="m -3257.8719,-1028.0888 v 15.3128 h -40.105 -43.022 v 57.36254 h 43.022 v -32.57028 h 40.105 v 17.25739 h 43.022 v -57.36245 z"
             style="opacity:1;fill:none;fill-opacity:1;stroke:#000000;stroke-width:2.72229052"
             inkscape:connector-curvature="0" />
          <path
             sodipodi:nodetypes="ccccc"
             inkscape:connector-curvature="0"
             id="path4795"
             d="m -3363.9453,-1012.498 -0.6694,78.99529 h 175.3962 l -2.0083,-118.49289 h -65.6063"
             style="fill:none;fill-rule:evenodd;stroke:#3465a4;stroke-width:1.61933446;stroke-linecap:butt;stroke-linejoin:miter;stroke-opacity:1" />
          <path
             inkscape:connector-curvature="0"
             id="rect4790"
             d="m -3375.3259,-998.10478 v 12.05013 h 18.277 l 6.0251,-6.02507 -6.0251,-6.02506 z"
             style="opacity:1;fill:#cc0000;fill-opacity:1;stroke:none;stroke-width:0.20820013" />
          <path
             style="opacity:1;fill:#cc0000;fill-opacity:1;stroke:none;stroke-width:0.20820013"
             d="m -3375.3259,-962.62385 v 12.05012 h 18.277 l 6.0251,-6.02506 -6.0251,-6.02506 z"
             id="path4797"
             inkscape:connector-curvature="0" />
          <path
             inkscape:connector-curvature="0"
             id="path4801"
             d="m -3347.1081,-919.67805 h 12.0502 v -18.27704 l -6.0251,-6.02506 -6.0251,6.02506 z"
             style="opacity:1;fill:#cc0000;fill-opacity:1;stroke:none;stroke-width:0.20820013" />
          <path
             style="opacity:1;fill:#cc0000;fill-opacity:1;stroke:none;stroke-width:0.20820013"
             d="m -3314.305,-920.34748 h 12.0502 v -18.27704 l -6.0251,-6.02506 -6.0251,6.02506 z"
             id="path4803"
             inkscape:connector-curvature="0" />
          <path
             inkscape:connector-curvature="0"
             id="path4805"
             d="m -3283.5102,-920.34748 h 12.0501 v -18.27704 l -6.025,-6.02506 -6.0251,6.02506 z"
             style="opacity:1;fill:#cc0000;fill-opacity:1;stroke:none;stroke-width:0.20820013" />
          <path
             style="opacity:1;fill:#cc0000;fill-opacity:1;stroke:none;stroke-width:0.20820013"
             d="m -3254.7238,-919.67805 h 12.0501 v -18.27704 l -6.025,-6.02506 -6.0251,6.02506 z"
             id="path4807"
             inkscape:connector-curvature="0" />
          <path
             inkscape:connector-curvature="0"
             id="path4809"
             d="m -3219.2429,-921.01693 h 12.0502 v -18.27705 l -6.0251,-6.02505 -6.0251,6.02505 z"
             style="opacity:1;fill:#cc0000;fill-opacity:1;stroke:none;stroke-width:0.20820013" />
          <path
             style="opacity:1;fill:#cc0000;fill-opacity:1;stroke:none;stroke-width:0.20820013"
             d="m -3175.6276,-949.90426 v -12.05014 h -18.277 l -6.0251,6.02508 6.0251,6.02506 z"
             id="path4811"
             inkscape:connector-curvature="0" />
          <path
             inkscape:connector-curvature="0"
             id="path4813"
             d="m -3176.297,-980.69904 v -12.05014 h -18.2771 l -6.025,6.02508 6.025,6.02506 z"
             style="opacity:1;fill:#cc0000;fill-opacity:1;stroke:none;stroke-width:0.20820013" />
          <path
             style="opacity:1;fill:#cc0000;fill-opacity:1;stroke:none;stroke-width:0.20820013"
             d="m -3176.9665,-1017.5189 v -12.0501 h -18.277 l -6.0251,6.0251 6.0251,6.025 z"
             id="path4815"
             inkscape:connector-curvature="0" />
          <path
             inkscape:connector-curvature="0"
             id="path4817"
             d="m -3205.1844,-1061.1341 h -12.0501 v 18.277 l 6.0251,6.0251 6.025,-6.0251 z"
             style="opacity:1;fill:#cc0000;fill-opacity:1;stroke:none;stroke-width:0.20820013" />
          <path
             style="opacity:1;fill:#cc0000;fill-opacity:1;stroke:none;stroke-width:0.20820013"
             d="m -3235.9791,-1060.4647 h -12.0502 v 18.2771 l 6.0251,6.025 6.0251,-6.025 z"
             id="path4819"
             inkscape:connector-curvature="0" />
          <path
             inkscape:connector-curvature="0"
             id="path4978"
             d="m -3339.8026,-1054.5805 a 4.8289989,4.2924435 0 0 0 -4.829,4.2924 4.8289989,4.2924435 0 0 0 0.6297,2.1088 4.8289989,4.2924435 0 0 0 -2.4733,1.4626 4.8289989,4.2924435 0 0 0 -2.6906,-0.73 4.8289989,4.2924435 0 0 0 -4.829,4.2924 4.8289989,4.2924435 0 0 0 1.819,3.3513 4.8289989,4.2924435 0 0 0 -0.7014,2.1707 4.8289989,4.2924435 0 0 0 -2.2322,3.6182 4.8289989,4.2924435 0 0 0 4.4689,4.2765 4.8289989,4.2924435 0 0 0 -0.01,0.1821 4.8289989,4.2924435 0 0 0 4.829,4.2925 4.8289989,4.2924435 0 0 0 0.7133,-0.051 4.8289989,4.2924435 0 0 0 3.2994,1.1656 4.8289989,4.2924435 0 0 0 4.8006,-3.8391 4.8289989,4.2924435 0 0 0 4.1167,2.0556 4.8289989,4.2924435 0 0 0 4.8289,-4.2925 4.8289989,4.2924435 0 0 0 -1.8875,-3.3976 10.031923,8.9172651 0 0 0 0.051,-0.1228 4.8289989,4.2924435 0 0 0 3.9191,1.7937 4.8289989,4.2924435 0 0 0 4.8289,-4.2925 4.8289989,4.2924435 0 0 0 -4.8289,-4.2924 4.8289989,4.2924435 0 0 0 -0.8058,0.061 4.8289989,4.2924435 0 0 0 -0.8433,-1.8275 4.8289989,4.2924435 0 0 0 0.6818,-2.1893 4.8289989,4.2924435 0 0 0 -4.4723,-4.2766 4.8289989,4.2924435 0 0 0 -3.5636,-1.7833 4.8289989,4.2924435 0 0 0 -4.8186,-4.0287 z"
             style="opacity:1;fill:#73d216;fill-opacity:1;stroke:#4e9a06;stroke-width:1.07849765" />
          <path
             style="opacity:1;fill:#73d216;fill-opacity:1;stroke:#4e9a06;stroke-width:1.07849765"
             d="m -3317.2865,-1060.3768 a 4.8289989,4.2924435 0 0 0 -4.829,4.2924 4.8289989,4.2924435 0 0 0 0.6297,2.1089 4.8289989,4.2924435 0 0 0 -2.4733,1.4626 4.8289989,4.2924435 0 0 0 -2.6906,-0.7301 4.8289989,4.2924435 0 0 0 -4.829,4.2925 4.8289989,4.2924435 0 0 0 1.819,3.3513 4.8289989,4.2924435 0 0 0 -0.7015,2.1706 4.8289989,4.2924435 0 0 0 -2.2321,3.6183 4.8289989,4.2924435 0 0 0 4.4689,4.2764 4.8289989,4.2924435 0 0 0 -0.01,0.1822 4.8289989,4.2924435 0 0 0 4.829,4.2925 4.8289989,4.2924435 0 0 0 0.7133,-0.051 4.8289989,4.2924435 0 0 0 3.2994,1.1656 4.8289989,4.2924435 0 0 0 4.8006,-3.8391 4.8289989,4.2924435 0 0 0 4.1167,2.0557 4.8289989,4.2924435 0 0 0 4.8289,-4.2925 4.8289989,4.2924435 0 0 0 -1.8875,-3.3977 10.031923,8.9172651 0 0 0 0.051,-0.1228 4.8289989,4.2924435 0 0 0 3.9191,1.7938 4.8289989,4.2924435 0 0 0 4.8289,-4.2925 4.8289989,4.2924435 0 0 0 -4.8289,-4.2924 4.8289989,4.2924435 0 0 0 -0.8058,0.061 4.8289989,4.2924435 0 0 0 -0.8433,-1.8276 4.8289989,4.2924435 0 0 0 0.6818,-2.1893 4.8289989,4.2924435 0 0 0 -4.4724,-4.2766 4.8289989,4.2924435 0 0 0 -3.5635,-1.7833 4.8289989,4.2924435 0 0 0 -4.8186,-4.0288 z"
             id="path4980"
             inkscape:connector-curvature="0" />
          <path
             inkscape:connector-curvature="0"
             id="path4982"
             d="m -3301.9042,-1057.4787 a 4.8289989,4.2924435 0 0 0 -4.829,4.2925 4.8289989,4.2924435 0 0 0 0.6297,2.1089 4.8289989,4.2924435 0 0 0 -2.4733,1.4625 4.8289989,4.2924435 0 0 0 -2.6906,-0.73 4.8289989,4.2924435 0 0 0 -4.829,4.2924 4.8289989,4.2924435 0 0 0 1.819,3.3513 4.8289989,4.2924435 0 0 0 -0.7015,2.1707 4.8289989,4.2924435 0 0 0 -2.2321,3.6182 4.8289989,4.2924435 0 0 0 4.4689,4.2765 4.8289989,4.2924435 0 0 0 -0.01,0.1821 4.8289989,4.2924435 0 0 0 4.8289,4.2925 4.8289989,4.2924435 0 0 0 0.7134,-0.051 4.8289989,4.2924435 0 0 0 3.2994,1.1656 4.8289989,4.2924435 0 0 0 4.8006,-3.8392 4.8289989,4.2924435 0 0 0 4.1166,2.0556 4.8289989,4.2924435 0 0 0 4.829,-4.2924 4.8289989,4.2924435 0 0 0 -1.8876,-3.3976 10.031923,8.9172651 0 0 0 0.051,-0.1228 4.8289989,4.2924435 0 0 0 3.9191,1.7938 4.8289989,4.2924435 0 0 0 4.8289,-4.2926 4.8289989,4.2924435 0 0 0 -4.8289,-4.2924 4.8289989,4.2924435 0 0 0 -0.8057,0.061 4.8289989,4.2924435 0 0 0 -0.8433,-1.8276 4.8289989,4.2924435 0 0 0 0.6817,-2.1894 4.8289989,4.2924435 0 0 0 -4.4723,-4.2765 4.8289989,4.2924435 0 0 0 -3.5637,-1.7833 4.8289989,4.2924435 0 0 0 -4.8185,-4.0288 z"
             style="opacity:1;fill:#73d216;fill-opacity:1;stroke:#4e9a06;stroke-width:1.07849765" />
        </g>
      </g>
    </g>
  </g>
</svg>
